<svg aria-hidden="true"  version="1.1" xmlns="http://www.w3.org/2000/svg" xmlns:xlink="http://www.w3.org/1999/xlink">
<defs>
<symbol id="telegram" viewBox="0 0 32 32">
<path d="M29.686 3.237c-0.47-0.393-1.080-0.632-1.747-0.632-0.369 0-0.721 0.073-1.042 0.206l0.018-0.007-23.895 9.647c-0.999 0.419-1.688 1.389-1.688 2.519 0 1.183 0.754 2.19 1.808 2.566l0.019 0.006 4.833 1.681 2.694 8.909c0.040 0.128 0.094 0.24 0.161 0.341l-0.003-0.005c0.010 0.016 0.025 0.028 0.036 0.043 0.080 0.111 0.173 0.206 0.279 0.285l0.003 0.002c0.031 0.023 0.060 0.045 0.093 0.066 0.119 0.080 0.257 0.142 0.405 0.18l0.009 0.002 0.016 0.001 0.009 0.004c0.081 0.017 0.174 0.027 0.269 0.027h0c0.009 0 0.016-0.004 0.025-0.004 0.144-0.003 0.282-0.028 0.411-0.073l-0.009 0.003c0.030-0.010 0.056-0.027 0.085-0.040 0.104-0.044 0.194-0.095 0.276-0.155l-0.004 0.003c-0.422 0.347-0.356 0.291-0.29 0.235l0.493-0.406 3.603-3.978 5.374 4.163c0.452 0.354 1.028 0.568 1.655 0.569h0c1.312-0.002 2.408-0.926 2.674-2.159l0.003-0.018 4.35-21.355c0.035-0.163 0.055-0.351 0.055-0.544 0-0.836-0.379-1.584-0.975-2.080l-0.004-0.004zM12.493 19.648c-0.179 0.179-0.308 0.409-0.362 0.666l-0.002 0.009-0.413 2.005-1.045-3.457 5.42-2.823zM23.563 26.72l-6.35-4.919c-0.223-0.174-0.508-0.279-0.816-0.279-0.391 0-0.743 0.168-0.987 0.436l-0.001 0.001-1.154 1.274 0.408-1.982 9.444-9.444c0.242-0.241 0.391-0.575 0.391-0.943 0-0.736-0.597-1.333-1.333-1.333-0.225 0-0.438 0.056-0.624 0.155l0.007-0.004-13.554 7.057-4.966-1.817 23.971-9.59z"></path>
</symbol>
<symbol id="mail" viewBox="0 0 32 32">
<path   d="M15.9 18.941c-0.871 0-1.736-0.281-2.457-0.84l-12.307-10.415c-0.562-0.475-0.631-1.317-0.156-1.876 0.475-0.562 1.317-0.631 1.876-0.156l12.263 10.377c0.45 0.347 1.139 0.347 1.636-0.037l12.369-10.346c0.565-0.471 1.405-0.4 1.876 0.169 0.471 0.565 0.396 1.405-0.169 1.876l-12.41 10.377c-0.752 0.584-1.642 0.871-2.523 0.871z"></path>
<path   d="M27.935 29.318h-23.895c-2.226 0-4.040-1.811-4.040-4.040v-17.233c0-2.226 1.811-4.040 4.040-4.040h23.895c2.226 0 4.040 1.811 4.040 4.040v17.236c0 2.226-1.814 4.037-4.040 4.037zM4.040 6.672c-0.759 0-1.374 0.618-1.374 1.374v17.236c0 0.759 0.618 1.374 1.374 1.374h23.895c0.759 0 1.374-0.618 1.374-1.374v-17.236c0-0.759-0.618-1.374-1.374-1.374h-23.895z"></path>
</symbol>
<symbol id="telephone" viewBox="0 0 32 32">
<path d="M16 0c-8.837 0-16 7.163-16 16s7.163 16 16 16 16-7.163 16-16-7.163-16-16-16zM16 29.5c-7.456 0-13.5-6.044-13.5-13.5s6.044-13.5 13.5-13.5 13.5 6.044 13.5 13.5-6.044 13.5-13.5 13.5z"></path>
<path d="M20.445 23.998c0.356 0.001 3.555-2.364 3.555-2.666s-3.579-2.557-3.889-2.557-1.349 1.246-1.629 1.385c-0.281 0.139-2.031 0.089-3.981-1.861s-2.617-4.194-2.617-4.547 1.627-1.441 1.672-1.697-2.145-4.055-2.5-4.055-3.056 3.281-3.056 3.555 0.247 3.791 4.701 8.244 7.388 4.197 7.744 4.199z"></path>
</symbol>
<symbol id="linkedin" viewBox="0 0 32 32">
<path   d="M24.45 24.45h-3.556v-5.57c0-1.328-0.024-3.038-1.85-3.038-1.852 0-2.136 1.448-2.136 2.94v5.668h-3.556v-11.454h3.414v1.566h0.048c0.696-1.188 1.992-1.9 3.368-1.85 3.604 0 4.27 2.37 4.27 5.456l-0.002 6.28zM9.34 11.43c-1.137-0.006-2.057-0.925-2.064-2.061v-0.001c0-1.132 0.932-2.064 2.064-2.064s2.062 0.932 2.064 2.064c0 1.132-0.932 2.064-2.064 2.064zM11.118 24.45h-3.56v-11.454h3.56v11.454zM26.22 4h-20.45c-0.003-0-0.007-0-0.010-0-0.962 0-1.744 0.772-1.76 1.731l-0 0.001v20.536c0.016 0.96 0.798 1.732 1.76 1.732 0.004 0 0.007 0 0.011-0h20.451c0.004 0 0.009 0 0.014 0 0.963 0 1.746-0.772 1.764-1.73l0-0.002v-20.538c-0.018-0.958-0.799-1.728-1.76-1.728-0.006 0-0.013 0-0.019 0h0.001z"></path>
</symbol>
<symbol id="github" viewBox="0 0 32 32">
<path d="M16 2c-7.734 0-14 6.26-14 13.986 0 6.18 4.012 11.42 9.574 13.27 0.7 0.128 0.956-0.304 0.956-0.674 0-0.332-0.012-1.212-0.020-2.38-3.894 0.846-4.714-1.874-4.714-1.874-0.638-1.616-1.556-2.046-1.556-2.046-1.27-0.868 0.096-0.85 0.096-0.85 1.406 0.1 2.146 1.44 2.146 1.44 1.248 2.14 3.276 1.52 4.074 1.164 0.126-0.904 0.488-1.52 0.888-1.87-3.108-0.352-6.376-1.552-6.376-6.912 0-1.526 0.546-2.776 1.44-3.752-0.144-0.354-0.624-1.776 0.14-3.7 0 0 1.172-0.378 3.848 1.432 1.050-0.298 2.256-0.47 3.503-0.472h0.001c1.19 0.006 2.388 0.16 3.506 0.472 2.672-1.81 3.846-1.434 3.846-1.434 0.764 1.926 0.284 3.348 0.14 3.7 0.896 0.98 1.44 2.228 1.44 3.754 0 5.372-3.276 6.556-6.394 6.9 0.502 0.432 0.95 1.286 0.95 2.592 0 1.868-0.018 3.376-0.018 3.836 0 0.374 0.254 0.808 0.964 0.672 5.604-1.909 9.564-7.126 9.566-13.268v-0c-0.005-7.725-6.268-13.986-13.994-13.986-0.002 0-0.004 0-0.006 0h0z"></path>
</symbol>
<symbol id="cat" viewBox="0 0 77 32">
<path d="M70.343 3.314c0.686-1.086 1.543-1.943 2.571-2.629 0.571-0.4 0.914-0.4 1.257 0.343 0.457 1.086 0.857 2.229 0.514 3.429-0.114 0.457-0.057 0.8 0.229 1.2 0.343 0.457 0.629 0.914 0.914 1.314 0.743 1.086 1.029 2.229 0.514 3.543-0.229 0.571-0.229 1.143-0.114 1.771 0.114 0.571 0.114 1.143 0 1.714-0.171 0.914-0.629 1.543-1.543 1.829-0.743 0.171-1.371 0.514-1.829 1.143-0.114 0.171-0.286 0.286-0.514 0.286-0.686 0.114-2.4-1.429-2.4-2.114 0-0.114 0-0.229 0-0.343 0.057-2.057-0.057-2.229-1.943-3.086-0.4-0.171-0.743-0.343-1.029-0.686-0.343-0.457-0.8-0.4-1.314-0.229-0.457 0.229-0.8 0.514-0.743 1.086 0.171 1.371 0.229 2.743 0.171 4.171 0 0.171 0.057 0.343 0.114 0.457 1.771 2.571 2.457 5.6 3.314 8.514 0.686 2.229 1.943 3.429 4.229 3.6 0.343 0 0.743 0.114 1.086 0.171 1.029 0.171 1.657 0.857 1.943 1.829 0.4 1.2 0.171 1.486-1.029 1.486-1.257 0-2.457 0-3.714 0-0.514 0-0.914-0.114-1.314-0.457-0.571-0.571-1.257-0.8-1.943-1.143-0.743-0.343-1.486-0.743-1.943-1.486-0.629-0.971-1.486-1.771-2.286-2.571-1.6-1.657-3.314-3.257-4.8-4.971-1.086-1.257-1.829-2.629-1.829-4.343 0-0.514-0.114-0.743-0.686-0.514-0.171 0.114-0.4 0.171-0.571 0.171-1.6 0-2.4 0.971-2.971 2.4-0.514 1.2-1.2 2.343-1.829 3.543-0.286 0.629-0.571 1.486-0.571 2.4 0 1.371 0.343 1.829 1.6 2.286 0.8 0.286 1.543 0.571 1.943 1.371 0.457 0.914 0.343 1.143-0.629 1.2-1.314 0-2.571 0-3.886 0-0.514 0-0.857-0.171-1.086-0.629-0.343-0.571-0.686-1.143-1.029-1.714-0.571-0.971-0.8-1.943-0.4-3.086 0.343-0.971 0.171-2.057 0.057-3.029-0.229-1.486 0-2.8 0.971-4 0.343-0.4 0.343-0.571-0.229-0.686-2.343-0.457-4.571-1.314-6.743-2.343 0 0-0.057 0-0.057-0.057-1.829-0.686-2.171-0.571-2.686 1.314-0.457 1.6-0.914 3.2-1.257 4.857-0.4 1.829 0.057 3.543 0.629 5.257 0.229 0.686 0.914 0.629 1.429 0.8 1.143 0.343 2.114 0.8 2.571 2 0.4 0.914 0.343 1.029-0.629 1.029s-1.943-0.057-2.971 0c-0.914 0.057-1.6-0.286-2.4-0.8-2.743-1.829-3.543-4.629-3.771-7.657-0.114-1.886-1.143-3.371-2.343-4.8-0.229-0.286-0.457-0.4-0.8-0.171-1.2 0.743-2.571 1.2-3.829 1.714-2.743 1.029-5.143 2.629-6.971 5.029-0.686 0.857-1.086 1.829-1.257 2.914-0.171 1.029 0.114 1.486 1.143 1.771 1.086 0.343 1.543 0.857 1.657 1.943 0.057 0.457-0.114 0.686-0.571 0.686-1.543 0-3.086 0-4.629 0-0.343 0-0.571-0.229-0.743-0.457-0.743-0.914-1.086-2-1.086-3.143-0.057-2 0.171-3.943 0.514-5.886 0.229-1.2 0.8-2.171 1.943-2.743 3.371-1.6 5.143-4.629 6.743-7.771 0.343-0.629 0.057-0.743-0.514-0.686-1.657 0.171-3.086 0.914-4.4 1.829-1.714 1.2-3.257 2.629-4.743 4.057-1.657 1.543-3.543 2.629-5.886 2.8-4.171 0.229-6.114-2.114-5.943-5.886 0.057-1.314 0.514-2.514 1.371-3.486 0.686-0.743 1.486-1.143 2.571-0.857 0.857 0.229 1.086 0.686 0.743 1.543-0.171 0.343-0.4 0.629-0.571 0.971-0.229 0.343-0.457 0.743-0.571 1.143-0.629 1.714 0.229 2.914 2 3.086 1.886 0.171 3.429-0.629 4.857-1.771 1.714-1.371 3.257-2.971 4.571-4.743 2.114-2.743 4.857-4.171 8.229-4.629 1.314-0.171 2.457-0.743 3.714-1.086 2.343-0.686 4.743-1.086 7.257-1.029 1.143 0.057 2.229-0.171 3.314-0.629 2.8-1.143 5.714-1.143 8.629-0.571 2.286 0.457 4.571 1.029 6.8 1.6 1.257 0.286 2.686 0.171 4-0.114 2.514-0.571 5.086-1.086 7.657-1.143 1.714-0.057 3.371 0.229 4.914 0.971 1.143 0.514 1.143 0.514 0.857 1.6z"></path>
</symbol>
<symbol id="cocktail" viewBox="0 0 32 32">
<path d="M24.041 3.077c-0.475-0.658-1.31-0.897-2.023-1.078-0.923-0.234-1.86-0.405-2.802-0.528-1.061-0.139-2.139-0.205-3.215-0.188-1.076-0.017-2.154 0.049-3.215 0.188-0.942 0.123-1.878 0.294-2.802 0.528-0.714 0.181-1.549 0.42-2.023 1.078-0.394 0.546-0.587 1.299-0.211 1.922 0.229 0.38 0.537 0.696 0.828 1.020 0.356 0.396 0.71 0.794 1.066 1.192 0.71 0.795 1.416 1.594 2.125 2.39 0.354 0.398 0.709 0.796 1.063 1.194 0.253 0.284 0.515 0.553 0.777 0.823 0.622 0.839 1.079 1.806 1.346 2.886 0.262 1.059 0.377 2.145 0.426 3.237 0.021 0.455 0.032 0.911 0.042 1.367-0.005-0.004-0.012-0.007-0.020-0.006-1.198 0.106-2.596 0.368-3.402 1.31-0.706 0.826-0.828 2.032 0.043 2.801 0.909 0.803 2.338 1.061 3.537 1.102 0.14 0.005 0.281 0.005 0.42 0.003 0.14 0.002 0.28 0.002 0.42-0.003 1.199-0.041 2.628-0.299 3.537-1.102 0.871-0.77 0.749-1.976 0.043-2.801-0.806-0.942-2.204-1.204-3.402-1.31-0.008-0.001-0.015 0.003-0.020 0.006 0.010-0.456 0.021-0.912 0.042-1.367 0.050-1.093 0.165-2.179 0.427-3.237 0.267-1.080 0.724-2.047 1.346-2.886 0.262-0.27 0.524-0.538 0.777-0.823 0.354-0.398 0.709-0.796 1.063-1.194 0.709-0.796 1.415-1.595 2.125-2.39 0.355-0.397 0.709-0.796 1.066-1.192 0.291-0.324 0.599-0.64 0.828-1.020 0.375-0.623 0.182-1.377-0.212-1.923zM23.785 5.312c-0.621 0.734-1.275 1.438-1.908 2.16-0.644 0.735-1.301 1.458-1.95 2.189l-0.754 0.849c-1.265 0.942-2.009 2.637-2.384 4.192-0.281 1.162-0.373 2.374-0.413 3.57-0.020 0.603-0.035 1.21-0.020 1.814-0.008-0.003-0.019 0.003-0.019 0.014 0.006 0.146-0.068 0.262-0.158 0.363-0.097 0.11-0.233 0.077-0.352 0.115-0.023 0.007-0.039 0.040-0.024 0.063 0.111 0.161 0.363 0.092 0.484-0.018 0.062-0.056 0.116-0.126 0.122-0.214 0.072 0.215 0.219 0.361 0.47 0.395 0.049 0.007 0.054-0.074 0.011-0.090-0.456-0.168-0.325-0.987-0.317-1.38 0.001-0.058 0.003-0.116 0.004-0.174 0.004 0.003 0.006 0.007 0.012 0.009 1.094 0.279 2.244 0.474 3.092 1.256 0.064 0.059 0.123 0.123 0.179 0.189 0.035 0.047 0.069 0.095 0.1 0.146 0.134 0.223 0.207 0.484 0.23 0.746 0.047 0.531-0.222 0.974-0.536 1.347-0.023 0.027 0.006 0.066 0.035 0.049 0.366-0.199 0.578-0.589 0.655-1.011 0 0.009 0.002 0.018 0.001 0.028-0.003 0.608-0.439 1.097-0.941 1.416-0.922 0.587-2.216 0.751-3.302 0.775-0.034 0-0.068 0.001-0.102 0.001-0.034 0.001-0.068-0.001-0.102-0.001-1.086-0.024-2.379-0.187-3.302-0.775-0.502-0.32-0.938-0.808-0.941-1.416-0.002-0.563 0.239-1.103 0.664-1.495 0.848-0.782 1.998-0.977 3.092-1.256 0.005-0.001 0.008-0.005 0.012-0.009 0.001 0.058 0.003 0.116 0.004 0.174 0.008 0.393 0.139 1.213-0.318 1.38-0.043 0.016-0.038 0.096 0.011 0.090 0.361-0.050 0.512-0.327 0.523-0.717 0.016-0.604 0.001-1.212-0.020-1.816-0.040-1.197-0.132-2.408-0.413-3.57-0.376-1.555-1.119-3.25-2.384-4.192l-0.754-0.849c-0.649-0.731-1.305-1.454-1.95-2.189-0.633-0.722-1.287-1.425-1.908-2.16-0.308-0.364-0.573-0.803-0.463-1.321 0.081-0.379 0.262-0.735 0.538-0.99 0.644-0.596 1.534-0.768 2.342-0.946 0.873-0.193 1.753-0.344 2.64-0.438 0.842-0.089 1.683-0.131 2.524-0.138 0.068 0 0.136-0.001 0.204-0.001s0.136 0.001 0.204 0.001c0.841 0.007 1.681 0.049 2.524 0.138 0.887 0.094 1.768 0.244 2.64 0.438 0.807 0.179 1.697 0.35 2.342 0.946 0.276 0.255 0.457 0.612 0.538 0.99 0.111 0.517-0.155 0.957-0.462 1.321z"></path>
<path d="M23.962 4.806c-0.167 0.112-0.336 0.213-0.509 0.306 0.060-0.156 0.068-0.341 0.002-0.501-0.286-0.69-1.173-1.031-1.785-1.262-1.633-0.616-3.498-0.603-5.207-0.643-0.374-0.009-0.749-0.011-1.123-0.004 0.014-0.076 0.027-0.151 0.037-0.228 0.008-0.059-0.055-0.091-0.089-0.041-0.058 0.087-0.107 0.179-0.152 0.272-1.374 0.035-2.746 0.19-4.081 0.557-0.702 0.193-1.649 0.408-2.137 1.041-0.202 0.262-0.24 0.672-0.086 0.956-0.271-0.131-0.537-0.279-0.795-0.453-0.043-0.029-0.084 0.035-0.052 0.073 0.122 0.147 0.259 0.276 0.406 0.39 0.276 0.43 0.683 0.789 1.007 1.175 0.371 0.442 0.756 0.861 1.109 1.322 0.009 0.012 0.028-0.004 0.020-0.016-0.297-0.454-0.602-0.911-0.93-1.34-0.197-0.258-0.421-0.55-0.664-0.806 0.329 0.163 0.681 0.281 1.027 0.374 0.85 0.227 1.724 0.369 2.594 0.476 0.767 0.095 1.533 0.153 2.299 0.174 0.020 0.093 0.042 0.185 0.066 0.278-0.12-0.002-0.24-0.003-0.36-0.008-1.342-0.046-2.651-0.334-3.982-0.48-0.015-0.002-0.015 0.021-0.003 0.026 1.254 0.516 2.655 0.628 3.985 0.673 0.139 0.005 0.279 0.007 0.418 0.008 0.028 0.101 0.058 0.201 0.089 0.302 0.144 0.464 0.333 1.049 0.638 1.433-0.213 0.014-0.423 0.103-0.607 0.255-0.716 0.593-0.396 1.854 0.385 2.181 0.872 0.366 1.819-0.285 1.82-1.314 0-0.759-0.88-1.717-1.536-1.148-0.063-0.18-0.155-0.35-0.229-0.526-0.111-0.266-0.197-0.547-0.279-0.824-0.035-0.118-0.064-0.238-0.091-0.36 1.147-0 2.283-0.114 3.403-0.404 0.019-0.005 0.015-0.039-0.005-0.037-1.141 0.129-2.293 0.227-3.442 0.224-0.017-0.091-0.033-0.183-0.046-0.275 0.307 0.005 0.615 0.005 0.922-0.003 1.148 0.027 2.296-0.034 3.446-0.177 0.869-0.108 1.744-0.25 2.594-0.476 0.506-0.135 1.024-0.325 1.462-0.633-0.636 0.606-1.208 1.315-1.799 1.964-0.698 0.767-1.391 1.539-2.066 2.329-0.001 0.001 0.001 0.002 0.002 0.002 0.726-0.735 1.434-1.491 2.14-2.248 0.707-0.759 1.492-1.494 2.102-2.346 0.006-0.008 0.004-0.016 0-0.022 0.045-0.047 0.092-0.092 0.134-0.143 0.031-0.038-0.010-0.102-0.053-0.073zM16.558 10.011c0.001 0.023 0.030 0.027 0.036 0.005 0.1-0.339-0.031-0.786-0.312-0.986-0.14-0.1-0.289-0.154-0.439-0.168 0.604-0.257 1.2 0.36 1.256 1.022 0.065 0.773-0.615 1.371-1.292 1.257-0.693-0.117-1.102-0.979-0.736-1.634 0.444-0.795 1.454-0.307 1.486 0.504zM14.792 4.040c-0.085 0.567-0.099 1.143-0.064 1.715 0.014 0.22 0.041 0.435 0.079 0.647-0.671-0.038-1.34-0.095-2.005-0.178-1.303-0.163-2.609-0.351-3.808-0.89-0.138-0.217-0.135-0.513-0.023-0.756 0.152-0.332 0.524-0.505 0.823-0.63 0.649-0.27 1.326-0.466 2.006-0.619 1.062-0.24 2.147-0.341 3.231-0.37-0.123 0.344-0.185 0.716-0.24 1.082zM23.218 5.233c-0.080 0.039-0.161 0.077-0.242 0.113-0.029-0.002-0.059-0.006-0.091-0.016s-0.053 0.043-0.023 0.059c0.003 0.002 0.007 0.003 0.010 0.004-1.162 0.495-2.42 0.674-3.675 0.831-1.058 0.133-2.128 0.203-3.197 0.228-0.318-0.007-0.635-0.020-0.952-0.036-0.027-0.221-0.048-0.443-0.064-0.661-0.042-0.546-0.019-1.099 0.054-1.641 0.053-0.396 0.164-0.775 0.25-1.16 0.273-0.005 0.547-0.006 0.819-0.004 1.344 0.013 2.713 0.062 4.044 0.273 0.658 0.104 1.31 0.279 1.922 0.564 0.288 0.134 0.562 0.302 0.824 0.488 0.137 0.098 0.252 0.218 0.349 0.361 0.109 0.161 0.093 0.441-0.029 0.598z"></path>
<path d="M20.605 2.182c0.596 0.119 1.186 0.277 1.769 0.456 0.634 0.194 1.228 0.457 1.532 1.132 0.016 0.036 0.064 0.011 0.057-0.025-0.1-0.562-0.527-0.896-0.983-1.118-0.61-0.298-1.306-0.443-1.958-0.592-1.371-0.312-2.731-0.373-4.127-0.311-0.015 0.001-0.015 0.025-0 0.025 1.238 0.009 2.495 0.19 3.71 0.433z"></path>
<path d="M8.094 3.77c0.303-0.675 0.898-0.939 1.532-1.132 0.583-0.178 1.173-0.337 1.769-0.456 1.215-0.242 2.473-0.424 3.71-0.433 0.015 0 0.014-0.024-0-0.025-1.396-0.062-2.756-0.001-4.127 0.311-0.652 0.148-1.348 0.294-1.958 0.592-0.456 0.223-0.883 0.556-0.983 1.118-0.007 0.036 0.041 0.061 0.057 0.025z"></path>
<path d="M14.744 23.588c-0.57-0.098-1.129-0.264-1.67-0.477-0.631-0.248-1.198-0.658-1.234-1.449-0.001-0.012-0.017-0.015-0.020-0.003-0.339 1.348 1.568 1.865 2.408 2.076 1.344 0.338 2.739 0.307 4.061-0.123 0.040-0.013 0.023-0.073-0.017-0.066-1.159 0.21-2.365 0.242-3.527 0.043z"></path>
<path d="M15.418 21.154c0.337 0.42 1.194 0.576 1.307-0.131 0.003-0.020-0.021-0.043-0.036-0.023-0.332 0.456-0.821 0.257-1.228 0.074-0.044-0.020-0.068 0.047-0.043 0.079z"></path>
<path d="M15.905 11.613c-1.099-0.012-2.058-0.547-2.937-1.209-0.008-0.006-0.014 0.006-0.009 0.013 1.391 1.909 4.465 1.922 5.947 0.148 0.006-0.008-0.002-0.021-0.010-0.015-0.896 0.641-1.9 1.075-2.99 1.063z"></path>
</symbol>
<symbol id="donut" viewBox="0 0 32 32">
<path d="M4.182 14.697c0.004-0.114 0.007-0.227 0.013-0.341 0.028-0.59 0.004-0.596-0.133-1.161-0.076-0.313-0.157-0.625-0.063-1.033 0.133-0.579 0.371-1.013 0.614-1.449 0.44-0.791 0.945-1.49 1.502-2.072 1.029-1.075 2.109-1.999 3.32-2.521 0.638-0.275 1.264-0.615 1.92-0.775 0.717-0.175 1.437-0.286 2.165-0.307 0.903-0.027 1.782 0.163 2.648 0.531 0.129 0.055 0.21-0.008 0.312-0.121 0.583-0.644 1.191-1.218 1.883-1.548 0.080-0.038 0.163-0.085 0.244-0.084 0.485 0.008 0.968-0.1 1.451-0.084 0.599 0.019 1.19 0.198 1.775 0.401 0.756 0.263 1.452 0.78 2.144 1.281 0.47 0.34 0.888 0.868 1.31 1.352 0.591 0.678 1.157 1.406 1.669 2.228 0.407 0.654 0.685 1.431 0.953 2.227 0.206 0.613 0.345 1.245 0.414 1.927 0.060 0.588 0.003 1.132-0.169 1.651-0.072 0.217-0.095 0.421-0.022 0.647 0.108 0.332 0.058 0.683-0.011 0.999-0.1 0.46-0.271 0.884-0.364 1.347-0.152 0.758-0.553 1.167-0.929 1.559-0.846 0.882-1.79 1.411-2.805 1.65-0.6 0.141-1.188 0.158-1.787-0.008-0.631-0.174-1.207-0.558-1.769-1.002-0.327-0.259-0.634-0.577-0.948-0.873-0.171-0.161-0.331-0.342-0.474-0.563-0.208-0.32-0.214-0.312-0.471-0.039-0.269 0.285-0.522 0.612-0.836 0.775-0.847 0.44-1.625 1.158-2.499 1.485-0.602 0.226-1.203 0.452-1.828 0.513-1.058 0.104-2.1-0.047-3.136-0.352-0.517-0.152-1.011-0.443-1.52-0.645-0.193-0.077-0.382-0.189-0.577-0.247-0.351-0.105-0.673-0.369-1.029-0.438-0.010-0.002-0.022-0.005-0.030-0.013-0.598-0.602-1.317-0.857-1.889-1.511-0.339-0.388-0.659-0.876-0.796-1.536-0.125-0.599-0.271-1.199-0.253-1.848zM4.952 15.234c-0.157-0.022-0.088-0.232-0.099-0.341-0.029-0.292-0.066-0.542-0.299-0.571-0.053 0.128-0.064 0.282-0.051 0.418 0.048 0.501 0.062 1.006 0.148 1.504 0.077 0.449 0.26 0.764 0.441 1.094 0.050 0.091 0.122 0.196 0.217 0.11s0.195-0.43 0.157-0.546c-0.084-0.253-0.161-0.497-0.366-0.606-0.222-0.118-0.227-0.318-0.044-0.566 0.039-0.053 0.092-0.086 0.124-0.147 0.044-0.083 0.096-0.18 0.023-0.291-0.072-0.012-0.112 0.086-0.172 0.11-0.119 0.049-0.057-0.118-0.086-0.177 0.109-0.049 0.22-0.091 0.326-0.152 0.060-0.034 0.056-0.132 0.037-0.206-0.021-0.082-0.075-0.054-0.106-0.022-0.1 0.103-0.243 0.143-0.251 0.389zM11.713 15.811l0.007 0.012c0-0.079 0.077-0.133 0.040-0.218-0.039-0.088-0.094-0.036-0.139-0.003-0.132 0.099-0.264 0.197-0.392 0.308-0.091 0.080-0.202 0.175-0.224 0.323-0.057 0.379-0.207 0.709-0.233 1.099-0.015 0.232-0.070 0.441-0.143 0.638-0.054 0.148-0.084 0.381-0.223 0.363-0.181-0.023-0.387 0.192-0.546-0.141-0.074-0.155-0.144-0.084-0.152 0.1-0.002 0.058 0.022 0.128-0.070 0.134-0.018-0.332-0.125-0.477-0.343-0.308-0.017 0.013-0.049 0.018-0.061 0.002-0.19-0.244-0.417-0.134-0.629-0.167-0.011-0.002-0.018-0.048-0.027-0.074 0.035-0.123 0.146-0.125 0.202-0.406-0.2 0.309-0.344-0.104-0.516 0.093-0.050-0.304-0.134-0.175-0.256-0.024 0.087 0.010 0.136 0.016 0.186 0.022-0.043 0.070-0.080 0.154-0.131 0.205-0.058 0.058-0.146 0.142-0.185-0.010-0.024-0.093-0.108-0.067-0.114-0.147 0.104-0.195 0.292-0.206 0.361-0.514-0.152 0.085-0.26 0.145-0.393 0.219 0.074-0.21 0.292-0.185 0.233-0.518-0.217 0.179-0.415 0.342-0.606 0.501-0.177-0.289 0.073-0.391 0.128-0.596-0.323 0.050-0.473 0.432-0.686 0.649-0.22 0.224-0.437 0.405-0.683 0.441-0.019 0.101 0.012 0.129 0.038 0.15 0.102 0.082 0.204 0.166 0.31 0.237 0.955 0.64 1.948 1.112 2.945 1.565 0.323 0.147 0.644 0.282 0.984 0.312 0.272 0.023 0.542 0.098 0.811 0.17 0.133 0.036 0.296 0.015 0.381 0.301-0.232 0.111-0.472-0.087-0.676 0.147 0.359 0.114 0.713 0.279 1.090 0.201-0.013-0.17-0.089-0.192-0.123-0.267-0.195-0.429-0.271-0.786-0.116-1.007 0.19-0.27 0.311-0.604 0.434-0.943 0.024-0.066 0.1-0.122 0.071-0.192-0.040-0.095-0.107-0.175-0.174-0.226-0.048-0.037-0.121 0.071-0.177-0.043 0.040-0.126 0.137-0.215 0.079-0.413-0.037-0.127-0.008-0.301-0.009-0.453v0.001c0.072-0.064 0.142-0.14 0.218-0.187 0.089-0.054 0.184-0.26 0.271 0.046 0.030 0.106 0.129 0.016 0.155-0.118 0.023-0.12-0.023-0.222-0.038-0.33-0.112-0.768-0.188-0.648-0.455-0.297-0.046 0.060-0.121 0.073-0.129 0.192l0.001-0.001c-0.072-0.203-0.024-0.336 0.104-0.424 0.076-0.052 0.156-0.095 0.225-0.164 0.065-0.065 0.037-0.134-0.077-0.195l0.001-0.002c-0.088-0.344-0.087-0.343-0.295-0.18-0.079 0.064-0.16 0.129-0.254 0.139zM16.899 11.627c-0.261-0.398-0.384-0.943-0.611-1.378-0.021-0.040-0.040-0.136 0.016-0.165 0.235-0.122 0.096-0.389 0.1-0.6 0-0.015-0.028-0.031-0.041-0.045-0.067 0.009-0.021 0.219-0.132 0.154-0.057-0.308 0.067-0.532 0.179-0.731 0.151-0.268 0.223-0.576 0.29-0.894-0.11-0.143-0.238-0.179-0.352-0.255-0.144-0.096-0.262-0.002-0.299 0.216-0.111 0.656-0.266 1.3-0.249 1.995 0.011 0.439 0.055 0.873 0.119 1.298 0.223 1.475 0.674 2.771 1.273 3.967 0.478 0.954 1.009 1.807 1.594 2.607 0.455 0.622 0.992 1.023 1.468 1.576 0.097 0.112 0.188 0.163 0.27-0.078 0.044-0.129 0.168-0.091 0.261-0.034 0.204 0.127 0.41 0.25 0.615 0.374 0.293 0.177 0.58 0.456 0.882 0.506 0.609 0.102 1.23 0.274 1.834-0.116 0.163-0.106 0.217-0.048 0.287 0.208 0.024 0.087 0.059 0.087 0.096 0.078 0.158-0.041 0.319-0.071 0.449-0.247-0.068-0.133-0.153-0.060-0.189-0.091 0.213-0.229 0.535-0.179 0.704-0.609 0.042-0.107 0.146-0.112 0.227-0.149 0.262-0.12 0.523-0.249 0.782-0.383 0.045-0.023 0.1-0.074 0.084-0.176-0.015-0.094-0.096-0.019-0.131-0.134 0.217-0.031 0.376-0.151 0.478-0.482 0.074-0.239 0.114-0.21-0.064-0.325 0.070-0.109 0.229-0.020 0.239-0.24 0.004-0.093-0.073-0.099-0.123-0.145 0.122-0.060 0.24-0.11 0.354-0.179 0.048-0.029 0.086-0.111 0.058-0.197-0.020-0.060-0.071-0.064-0.113-0.047-0.030 0.012-0.057 0.041-0.085 0.061-0.219 0.153-0.297 0.132-0.473-0.129-0.056 0.039-0.060 0.123-0.076 0.2-0.181 0.933-0.507 1.67-1.184 1.783-0.273 0.046-0.578 0.034-0.781-0.396-0.177-0.376-0.413-0.391-0.589-0.039-0.334 0.671-0.82 0.987-1.287 1.348-0.054 0.041-0.14 0.108-0.169 0.003-0.054-0.193-0.191-0.090-0.253-0.175-0.009-0.114 0.029-0.149 0.056-0.197 0.021-0.038 0.082-0.069 0.013-0.149-0.035 0.015-0.076 0.029-0.114 0.049-0.218 0.115-0.219 0.117-0.337-0.187-0.072-0.185-0.093-0.388-0.106-0.603-0.010-0.162-0.019-0.349-0.167-0.419-0.132-0.062-0.223-0.003-0.312 0.13-0.053 0.079-0.104 0.163-0.164 0.229-0.253 0.279-0.432 0.271-0.684-0.020-0.067-0.077-0.13-0.169-0.204-0.222-0.323-0.226-0.535-0.966-0.376-1.441 0.102-0.305 0.040-0.497-0.081-0.739-0.037 0.075-0.059 0.109-0.073 0.149-0.022 0.061 0.005 0.182-0.076 0.167-0.066-0.013-0.054-0.104-0.068-0.183-0.032-0.179 0.056-0.317 0.071-0.537-0.078 0.063-0.122 0.096-0.165 0.135-0.054 0.049-0.103 0.122-0.165 0.019-0.046-0.076-0.033-0.144 0.002-0.214 0.049-0.098 0.021-0.122-0.036-0.208-0.187-0.285-0.412-0.439-0.645-0.604-0.284-0.201-0.554-0.207-0.841-0.081-0.094 0.041-0.235 0.241-0.224-0.137-0.196 0.071-0.318-0.389-0.536-0.177-0.035 0.034-0.084 0.031-0.094-0.059-0.005-0.048 0.006-0.111 0.038-0.113 0.184-0.006 0.121-0.162 0.067-0.283-0.153-0.341-0.172-0.713-0.131-1.107 0.008-0.080 0.044-0.187-0.036-0.245-0.148 0.282-0.139 0.281-0.095 0.559 0.023 0.142 0.042 0.28 0.087 0.413 0.028 0.083 0.034 0.192-0.016 0.271-0.018 0.029-0.059 0.048-0.084 0.038-0.075-0.030-0.088-0.132-0.083-0.232 0.024-0.556-0.094-1.128 0.086-1.667 0.027-0.081 0.019-0.191 0.027-0.287 0.223-0.152 0.223-0.152 0.095-0.448-0.033 0.168-0.061 0.315-0.088 0.463zM13.48 10.933c-0.009 0.064-0.019 0.126-0.027 0.19-0.014 0.108-0.128 0.154-0.086 0.286 0.026 0.084 0.153-0.002 0.144 0.194-0.155 0.122-0.271-0.101-0.406-0.139-0.533-0.152-1.050-0.028-1.556 0.186-0.329 0.139-0.669 0.345-0.743 0.984-0.006 0.054-0.011 0.079-0.046 0.029-0.037-0.051-0.081-0.131-0.124-0.014-0.029 0.080-0.008 0.166 0.029 0.224 0.065 0.105 0.143 0.191 0.208 0.295 0.181 0.286 0.442 0.404 0.634 0.695-0.050 0.060-0.081 0.104-0.116 0.137-0.737 0.699-1.309 1.673-1.86 2.679-0.167 0.304-0.162 0.315 0.027 0.553 0.059 0.074 0.11 0.154 0.13 0.267 0.061 0.334 0.196 0.455 0.422 0.428 0.202-0.024 0.239-0.023 0.271-0.329 0.075-0.708 0.285-1.302 0.551-1.887 0.273-0.599 0.594-0.811 1.051-0.688 0.607 0.164 0.798 0.626 0.798 1.405 0 0.186-0.034 0.381 0.014 0.546 0.070 0.043 0.099-0.013 0.13-0.052 0.319-0.399 0.651-0.772 1.001-1.103 0.57-0.541 1.035-1.273 1.519-1.969 0.142-0.204 0.215-0.488 0.286-0.761-0.080-0.073-0.128-0.026-0.169 0.017-0.071 0.076-0.124 0.033-0.158-0.059s0.022-0.138 0.062-0.191c0.076-0.101 0.183-0.178 0.149-0.374-0.084-0.079-0.114 0.167-0.198 0.055 0.098-0.335-0.023-0.647-0.043-0.969-0.005-0.087-0.039-0.168-0.096-0.169-0.086-0-0.089 0.116-0.086 0.213 0.012 0.438-0.089 0.834-0.212 1.21-0.108 0.33-0.239 0.625-0.455 0.848-0.534 0.553-1.14 0.431-1.764 0.599 0.090-0.262 0.204-0.231 0.302-0.253 0.495-0.113 0.956-0.344 1.356-0.84 0.212-0.263 0.224-0.241 0.179-0.662 0.199 0.174 0.248 0.172 0.337-0.107 0.122-0.38 0.124-0.762-0.014-1.153-0.076-0.216-0.151-0.299-0.296-0.184-0.026 0.021-0.051 0.054-0.077-0.001 0.009-0.131 0.127-0.243 0.028-0.399-0.139 0.056-0.177 0.314-0.301 0.373-0.204-0.298 0.036-0.507 0.086-0.793-0.245 0.012-0.291 0.415-0.478 0.515 0.002-0.297 0.201-0.398 0.226-0.745-0.207 0.313-0.37 0.557-0.532 0.802 0.020-0.25 0.169-0.406 0.25-0.723-0.145 0.199-0.238 0.326-0.331 0.455-0.044 0.061-0.085 0.079-0.137 0.016-0.094-0.116-0.129-0.38-0.068-0.541 0.028-0.074 0.103-0.129 0.037-0.25-0.026 0.025-0.052 0.049-0.077 0.075-0.257 0.266-0.406 0.698-0.645 0.991-0.063 0.077-0.137 0.225-0.215 0.113-0.086-0.124 0.045-0.21 0.071-0.318 0.011-0.042 0.012-0.060-0.028-0.069-0.148 0.195-0.314 0.379-0.42 0.714 0.221-0.096 0.435 0.234 0.604-0.118 0.006-0.013 0.047-0.010 0.053 0.003 0.113 0.301 0.158 0.145 0.206-0.065 0.021-0.092 0.068-0.193 0.134-0.169s0.133 0.086 0.149 0.222c0.011 0.091-0.044 0.244 0.102 0.251 0.047-0.176 0.070-0.4 0.215-0.48zM19.927 4.154c-0.181 0.023-0.359 0.011-0.538 0.022-0.317 0.019-0.62 0.169-0.937 0.189-0.724 0.046-1.299 0.585-1.793 1.359-0.101 0.158-0.154 0.386-0.245 0.563-0.191 0.37-0.152 0.676 0.142 0.841 0.181 0.102 0.327 0.289 0.499 0.411 0.163 0.116 0.223 0.331 0.153 0.568-0.089 0.302-0.156 0.623-0.327 0.867-0.268 0.384-0.381 0.926 0.041 1.326 0.263 0.25 0.37 0.633 0.355 1.119-0.008 0.264-0.028 0.524-0.086 0.764-0.085 0.356-0.054 0.706-0.025 1.059 0.012 0.145 0.046 0.281 0.124 0.384 0.322 0.423 0.673 0.633 1.099 0.414 0.336-0.172 0.668-0.188 1.019-0.019 0.402 0.195 0.589 0.59 0.668 1.206 0.096 0.748 0.144 1.513 0.299 2.242 0.056 0.263 0.119 0.527 0.268 0.704 0.093 0.11 0.222 0.241 0.315 0.111 0.152-0.211 0.381-0.274 0.472-0.607 0.040-0.145 0.128-0.257 0.187-0.391 0.14-0.317 0.331-0.319 0.534-0.199 0.387 0.229 0.489 0.629 0.407 1.148-0.062 0.396 0.029 0.572 0.293 0.598 0.223 0.021 0.439-0.052 0.652-0.144 0.125-0.054 0.217-0.159 0.291-0.341 0.14-0.343 0.296-0.672 0.506-0.929 0.149-0.182 0.303-0.21 0.461-0.028 0.126 0.146 0.255 0.287 0.376 0.444 0.248 0.321 0.521 0.296 0.805 0.161 0.241-0.115 0.263-0.427 0.33-0.749 0.096-0.467 0.24-0.895 0.546-1.197 0.277-0.274 0.612-0.396 0.839-0.821 0.305-0.572 0.453-1.206 0.403-1.928-0.049-0.715-0.206-1.394-0.441-2.013-0.174-0.459-0.32-0.959-0.538-1.363-0.322-0.597-0.703-1.116-1.033-1.706-0.168-0.3-0.422-0.437-0.602-0.702-0.393-0.577-0.882-0.938-1.315-1.422-0.37-0.414-0.808-0.694-1.232-0.978-0.946-0.634-1.951-0.867-2.972-0.962zM15.618 6.004c-0.088-0.116-0.171-0.136-0.254-0.158-0.29-0.077-0.579-0.164-0.867-0.244-0.256-0.071-0.497-0.241-0.77-0.227-0.736 0.038-1.464 0.157-2.188 0.354-1.114 0.302-2.181 0.833-3.223 1.502-0.372 0.239-0.7 0.594-1.047 0.898-0.826 0.724-1.617 1.522-2.291 2.565-0.189 0.292-0.377 0.592-0.508 0.972 0.037 0.015 0.061 0.038 0.076 0.028 0.624-0.44 1.306-0.613 1.941-0.999 0.488-0.296 0.999-0.524 1.465-0.887 1.118-0.871 2.257-1.671 3.379-2.526 0.481-0.366 0.945-0.787 1.449-1.079 0.256-0.148 0.515-0.291 0.791-0.313 0.196-0.016 0.264 0.149 0.203 0.435-0.055 0.255-0.192 0.386-0.329 0.501-0.499 0.42-1.001 0.83-1.503 1.239-0.931 0.758-1.91 1.358-2.841 2.118-1.144 0.934-2.185 2.069-3.081 3.515-0.213 0.344-0.415 0.687-0.408 1.214 0.002 0.173-0.043 0.35-0.073 0.522-0.049 0.272-0.039 0.545-0.030 0.823 0.018 0.563 0.239 0.878 0.541 1.096 0.122 0.088 0.243 0.064 0.364-0.029 0.135-0.106 0.242-0.257 0.324-0.451 0.081-0.191 0.182-0.356 0.282-0.524 0.183-0.307 0.413-0.421 0.659-0.309 0.201 0.091 0.342 0.004 0.495-0.162 0.267-0.288 0.514-0.639 0.815-0.833 0.566-0.364 0.975-1.066 1.477-1.565 0.135-0.135 0.134-0.309 0.024-0.491-0.049-0.081-0.109-0.153-0.172-0.208-0.052-0.045-0.091-0.099-0.077-0.186 0.058-0.347-0.019-0.676-0.044-1.012-0.025-0.332 0.039-0.636 0.131-0.938 0.236-0.776 0.669-1.174 1.168-1.363 0.847-0.322 1.697-0.255 2.506 0.271 0.236 0.153 0.386 0.084 0.553-0.133 0.048-0.063 0.098-0.123 0.146-0.186 0.033-0.043 0.062-0.095 0.039-0.166-0.034-0.109-0.083-0.052-0.132-0.024-0.037 0.021-0.082 0.044-0.103-0.043 0.005-0.031 0.004-0.082 0.015-0.089 0.322-0.214 0.528-0.641 0.735-1.037 0.101-0.192 0.237-0.381 0.27-0.677 0.018-0.161 0-0.23-0.066-0.312 0.053-0.1 0.114-0.191 0.154-0.301 0.027-0.075-0.007-0.167-0.050-0.213-0.158-0.168-0.019-0.245 0.056-0.369zM12.904 20.749c0.262-0.133 0.429-0.389 0.661-0.415 0.76-0.084 1.493-0.375 2.224-0.687 0.184-0.078 0.369-0.126 0.561-0.122 0.314 0.006 0.563-0.261 0.891-0.442-0.211-0.176-0.35 0.072-0.525-0.005 0.249-0.538 0.714-0.427 0.974-0.861-0.136-0.188-0.218 0.141-0.356 0.072 0.064-0.17 0.171-0.283 0.139-0.519-0.099 0.028-0.249 0.308-0.292-0.073 0.090-0.155 0.267-0.132 0.324-0.406-0.337 0.104-0.664 0.176-0.981 0.326-0.069 0.033-0.131 0.091-0.212 0.066-0.212-0.066-0.41-0.016-0.612 0.126-0.188 0.133-0.319 0.006-0.401-0.224-0.075-0.211 0.129-0.226 0.092-0.401-0.035 0.009-0.066 0.012-0.094 0.025-0.061 0.027-0.121 0.063-0.155 0.155-0.043 0.119-0.119 0.119-0.191 0.136-0.264 0.061-0.26 0.063-0.332 0.484-0.046 0.266-0.092 0.536-0.266 0.689-0.265 0.233-0.523 0.487-0.815 0.632-0.047 0.023-0.107 0.132-0.159-0.006 0.079-0.137 0.216-0.175 0.261-0.375-0.189-0.046-0.306 0.209-0.481 0.202-0.223-0.009-0.262 0.054-0.186 0.356 0.133 0.528 0.042 0.911-0.251 1.214-0.013 0.014-0.013 0.057-0.023 0.104 0.248 0.301 0.536 0.223 0.807 0.146 0.147-0.041 0.321-0.036 0.438-0.236 0.036-0.061 0.076-0.127 0.043-0.212-0.024-0.060-0.074-0.064-0.115-0.046-0.212 0.093-0.437 0.114-0.637 0.273-0.081 0.065-0.162 0.145-0.331 0.025zM16.191 17.359c0.127-0.017 0.219-0.091 0.305-0.189 0.112-0.127 0.243-0.28 0.249-0.474 0.003-0.112-0.118-0.286-0.225-0.386-0.084-0.078-0.176-0.206-0.054-0.382 0.064-0.092 0.037-0.224 0.028-0.325-0.016-0.177-0.118-0.058-0.18-0.081-0.094-0.034-0.121-0.173-0.166-0.266-0.174-0.361-0.168-0.37-0.429-0.206-0.058 0.036-0.115 0.083-0.165 0.139-0.613 0.693-1.179 1.466-1.651 2.392-0.078 0.153-0.164 0.298-0.231 0.461-0.084 0.202-0.040 0.346 0.103 0.385 0.196 0.053 0.464-0.142 0.512-0.436 0.065-0.394 0.229-0.691 0.357-1.022 0.149-0.386 0.377-0.495 0.645-0.326 0.127 0.080 0.237 0.207 0.347 0.333 0.171 0.196 0.362 0.326 0.556 0.382zM12.745 9.64c-0.258 0.254-0.764 1.208-0.796 1.456 0.319-0.409 0.646-0.992 0.796-1.456zM15.302 20.18c-0.292 0.043-0.576 0.124-0.829 0.371 0.294-0.032 0.579-0.112 0.829-0.371zM7.353 19.072c0.243 0.199 0.495 0.388 0.783 0.397-0.236-0.239-0.496-0.367-0.783-0.397zM12.715 18.262c-0.032-0.083-0.071-0.19-0.153-0.181-0.071 0.007-0.159 0.054-0.144 0.194 0.012 0.113 0.092 0.17 0.165 0.178 0.069 0.008 0.114-0.058 0.132-0.19zM25.827 19.824c0.15-0.157 0.281-0.243 0.355-0.545-0.198 0.099-0.375 0.103-0.355 0.545zM8.407 19.625c0.081 0.306 0.214 0.259 0.396 0.243-0.138-0.165-0.238-0.254-0.396-0.243zM12.742 10.118c0.113-0.051 0.188-0.159 0.231-0.312 0.012-0.041 0.021-0.096-0.015-0.128-0.029-0.027-0.060-0.016-0.084 0.016-0.081 0.107-0.112 0.256-0.132 0.424zM13.275 18.538c-0.224 0.072-0.224 0.072-0.288 0.307 0.126-0.016 0.213-0.092 0.288-0.307zM12.441 9.662c-0.114 0.128-0.158 0.247-0.176 0.4 0.065-0.094 0.164-0.148 0.176-0.4zM9.59 20.208c0.114 0.109 0.188 0.128 0.273 0.041-0.072-0.141-0.148-0.151-0.273-0.041zM12.258 20.535c-0.048-0.028-0.101-0.070-0.158-0.088-0.028-0.009-0.062 0.048-0.047 0.094 0.029 0.092 0.087 0.128 0.152 0.115 0.031-0.006 0.053-0.041 0.053-0.12zM16.839 15.584c-0.077-0.061-0.128 0.019-0.18 0.086-0.005 0.006 0.007 0.071 0.018 0.076 0.076 0.037 0.131-0.012 0.167-0.115 0.003-0.010-0.003-0.027-0.005-0.047zM12.002 10.582c-0.015-0.048-0.034-0.060-0.053-0.034-0.030 0.041-0.071 0.083-0.079 0.135-0.010 0.066 0.037 0.059 0.058 0.032 0.030-0.038 0.052-0.092 0.074-0.134z"></path>
<path d="M20.729 9.831c-0.015-0.609 0.070-1.153 0.39-1.573 0.215-0.282 0.464-0.422 0.729-0.366 0.992 0.206 1.766 0.936 2.193 2.377 0.424 1.429-0.245 2.579-1.050 2.654-0.677 0.064-1.277-0.329-1.721-1.165-0.166-0.313-0.327-0.634-0.424-1.022-0.073-0.294-0.106-0.593-0.117-0.904zM22.86 12.794c0.1-0.034 0.194-0.056 0.284-0.097 0.168-0.077 0.165-0.079 0.029-0.286-0.028-0.043-0.050-0.108-0.057-0.168-0.029-0.251-0.138-0.429-0.225-0.632-0.225-0.527-0.536-0.902-0.865-1.257-0.315-0.341-0.613-0.714-1.045-0.49-0.059 0.031-0.107 0.008-0.116 0.122-0.009 0.116 0.002 0.231 0.039 0.331 0.274 0.751 0.556 1.496 1.051 1.959 0.28 0.261 0.593 0.401 0.905 0.52zM22.248 9.119c-0.016-0.108-0.057-0.127-0.097-0.131-0.041-0.004-0.096-0.044-0.116 0.061 0.063 0.073 0.124 0.119 0.214 0.070zM22.72 10.176c0.040 0.103 0.101 0.070 0.155 0.055 0.026-0.007 0.029-0.048 0.009-0.066-0.054-0.046-0.109-0.064-0.163 0.011z"></path>
<path d="M23.243 16.262c-0.059-0.336-0.18-0.457-0.314-0.561-0.197-0.152-0.386-0.324-0.554-0.55-0.119-0.161-0.142-0.353-0.103-0.57 0.041-0.224 0.172-0.328 0.293-0.284 0.383 0.139 0.701-0.005 1.008-0.374 0.119-0.144 0.306-0.099 0.461-0.053 0.152 0.045 0.205 0.229 0.128 0.432-0.085 0.223-0.173 0.446-0.277 0.648-0.168 0.327-0.38 0.6-0.481 1.007-0.021 0.086-0.077 0.151-0.161 0.307zM22.718 14.566c-0.104 0.052-0.223 0.077-0.272 0.231-0.055 0.172 0.046 0.271 0.123 0.342 0.179 0.168 0.37 0.305 0.55 0.474 0.117 0.11 0.189 0.063 0.261-0.095 0.146-0.318 0.297-0.63 0.448-0.942 0.050-0.104 0.126-0.199 0.053-0.338-0.074-0.141-0.168-0.189-0.279-0.089-0.163 0.147-0.351 0.264-0.331 0.635 0.010 0.181-0.064 0.284-0.151 0.332-0.094 0.052-0.103-0.124-0.151-0.199-0.079-0.124-0.141-0.282-0.252-0.352z"></path>
<path d="M24.551 7.905c0.134-0.058 0.225 0.216 0.367 0.163 0.122-0.045 0.191-0.258 0.327-0.27 0.063-0.005 0.125-0.008 0.188-0.005 0.099 0.004 0.194 0.044 0.237 0.191 0.050 0.167-0.034 0.265-0.103 0.366-0.181 0.265-0.37 0.519-0.456 0.904-0.035 0.157-0.133 0.169-0.205 0.080-0.166-0.206-0.35-0.326-0.553-0.416-0.16-0.071-0.232-0.351-0.194-0.593 0.038-0.244 0.194-0.417 0.392-0.419zM25.056 8.6c0.128-0.133 0.227-0.301 0.293-0.537-0.258 0.053-0.258 0.053-0.311 0.507-0.1 0.047-0.201 0.094-0.326 0.152 0.211 0.163 0.211 0.163 0.344-0.122z"></path>
<path d="M21.84 5.896c0.006 0.185-0.032 0.358-0.090 0.509-0.122 0.319-0.268 0.614-0.431 0.887-0.075 0.125-0.16 0.176-0.279 0.092-0.144-0.102-0.283-0.211-0.407-0.36-0.152-0.183-0.211-0.44-0.197-0.729 0.019-0.4 0.224-0.63 0.459-0.466 0.163 0.114 0.21 0.038 0.284-0.162 0.089-0.24 0.27-0.297 0.47-0.213 0.15 0.063 0.185 0.235 0.191 0.442zM21.627 6.075c0.009-0.1-0.012-0.239-0.117-0.301-0.098-0.058-0.158 0.050-0.206 0.157-0.035 0.078-0.054 0.172-0.080 0.26-0.049 0.17-0.113 0.167-0.188 0.041-0.028-0.047-0.049-0.111-0.083-0.141-0.096-0.084-0.183-0.023-0.256 0.079-0.063 0.088-0.063 0.202-0.018 0.308 0.122 0.294 0.348 0.334 0.522 0.498 0.011 0.010 0.043-0.008 0.054-0.028 0.138-0.255 0.34-0.441 0.372-0.873z"></path>
<path d="M19.074 10.448c0.041 0.008 0.088-0.001 0.123 0.026 0.162 0.124 0.28 0.019 0.39-0.157 0.122-0.196 0.27-0.301 0.446-0.302 0.2-0.002 0.251 0.061 0.297 0.372 0.057 0.378 0.016 0.58-0.188 0.785-0.12 0.121-0.194 0.283-0.261 0.47-0.101 0.281-0.15 0.302-0.307 0.116s-0.326-0.267-0.522-0.276c-0.161-0.007-0.266-0.165-0.321-0.399-0.050-0.216 0.016-0.376 0.109-0.519 0.063-0.098 0.144-0.125 0.232-0.117zM18.96 11.108c0.254 0.091 0.527 0.006 0.765 0.211 0.046 0.040 0.107 0.019 0.145-0.045 0.093-0.154 0.192-0.306 0.242-0.505 0.040-0.161 0.019-0.332-0.059-0.454-0.081-0.126-0.178-0.040-0.265 0.012-0.129 0.078-0.188 0.252-0.225 0.443-0.027 0.14-0.072 0.188-0.161 0.124-0.047-0.035-0.095-0.068-0.145-0.094-0.174-0.092-0.212-0.055-0.299 0.308z"></path>
<path d="M19.255 8.798c-0.203-0.22-0.389-0.36-0.624-0.347-0.158 0.009-0.369-0.376-0.396-0.625-0.022-0.201 0.052-0.431 0.215-0.465 0.284-0.058 0.502-0.252 0.686-0.575 0.033-0.058 0.085-0.095 0.133-0.125 0.234-0.148 0.374-0.008 0.361 0.382-0.012 0.377-0.087 0.734-0.227 1.044-0.095 0.21-0.204 0.401-0.147 0.712zM19.437 7.248c0.019-0.147-0.084-0.306-0.171-0.258-0.067 0.037-0.162 0.103-0.176 0.185-0.078 0.442-0.214 0.603-0.496 0.347-0.057-0.051-0.144 0.036-0.175 0.154-0.015 0.059-0.004 0.126 0.027 0.18 0.051 0.088 0.595 0.294 0.657 0.246 0.018-0.014 0.038-0.034 0.048-0.060 0.098-0.268 0.194-0.537 0.287-0.795z"></path>
<path d="M25.075 15.386c0.102 0.086 0.17-0.023 0.245-0.155s0.163-0.253 0.255-0.358c0.137-0.156 0.32-0.134 0.43 0.029 0.104 0.155 0.098 0.372-0.027 0.605-0.181 0.337-0.376 0.653-0.612 0.899-0.047 0.049-0.146 0.145-0.155 0.043-0.031-0.349-0.229-0.337-0.362-0.465-0.163-0.157-0.177-0.389-0.033-0.539 0.072-0.075 0.152-0.108 0.259-0.059zM25.858 15.238c0.001-0.156-0.103-0.218-0.191-0.136-0.204 0.189-0.229 0.569-0.361 0.835-0.010 0.020 0.011 0.094 0.030 0.125 0.033 0.056 0.075 0.042 0.11-0.005 0.145-0.191 0.273-0.406 0.364-0.668 0.019-0.056 0.036-0.116 0.047-0.151z"></path>
<path d="M26.928 11.583c-0.11 0.515-0.365 0.852-0.611 1.203-0.057 0.081-0.119 0.103-0.167 0.037-0.172-0.235-0.403-0.353-0.539-0.657-0.077-0.172-0.184-0.333-0.091-0.564 0.074-0.184 0.371-0.356 0.481-0.219 0.155 0.194 0.259 0.137 0.405 0.002 0.124-0.114 0.289-0.022 0.522 0.199zM26.225 12.448c0.067-0.009 0.116-0.059 0.156-0.142 0.069-0.143 0.14-0.282 0.211-0.423 0.041-0.081 0.071-0.171 0.021-0.262-0.049-0.089-0.114-0.056-0.174-0.021-0.063 0.036-0.094 0.117-0.132 0.197-0.133 0.278-0.136 0.276-0.282-0.023-0.064-0.131-0.133-0.215-0.234-0.085-0.094 0.121-0.105 0.296-0.019 0.421 0.127 0.183 0.301 0.219 0.452 0.337z"></path>
<path d="M20.802 13.991c0.005 0.199-0.215 0.492-0.378 0.503-0.126 0.009-0.208-0.115-0.217-0.332-0.008-0.177 0.198-0.501 0.326-0.511 0.114-0.010 0.265 0.181 0.269 0.339zM20.378 14.147c-0.001 0.096 0.041 0.126 0.081 0.116 0.080-0.021 0.176-0.044 0.195-0.191 0.014-0.112-0.051-0.178-0.119-0.168-0.091 0.014-0.149 0.102-0.157 0.243z"></path>
<path d="M18.157 5.253c0.256 0.020 0.333 0.104 0.328 0.359-0.004 0.247-0.134 0.436-0.28 0.411-0.153-0.027-0.263-0.255-0.253-0.523 0.008-0.207 0.051-0.259 0.204-0.247zM18.337 5.663c-0.012-0.088-0.056-0.125-0.111-0.123-0.063 0.002-0.092 0.064-0.081 0.159 0.010 0.084 0.038 0.152 0.103 0.135 0.058-0.015 0.091-0.069 0.088-0.171z"></path>
<path d="M25.91 13.773c0.002 0.165-0.211 0.414-0.318 0.371-0.041-0.017-0.073-0.059-0.081-0.129-0.016-0.137 0.009-0.265 0.081-0.335 0.093-0.090 0.197-0.050 0.294 0.014 0.013 0.008 0.016 0.053 0.023 0.079z"></path>
<path d="M18.002 9.823c-0.128 0.271-0.26 0.398-0.247 0.681-0.136-0.164-0.224-0.355-0.157-0.552 0.065-0.191 0.222-0.046 0.404-0.129z"></path>
<path d="M25.122 11.691c-0.004 0.177-0.121 0.354-0.224 0.327-0.069-0.018-0.109-0.094-0.11-0.201-0.001-0.136 0.151-0.312 0.247-0.292 0.063 0.013 0.085 0.077 0.086 0.167z"></path>
<path d="M23.385 7.157c-0.045-0.007-0.089-0.038-0.085-0.11 0.008-0.15 0.060-0.275 0.144-0.347 0.040-0.034 0.077 0.018 0.089 0.090 0.025 0.152-0.052 0.342-0.148 0.367z"></path>
<path d="M19.383 9.194c-0.037 0.147-0.112 0.211-0.22 0.185-0.050-0.012-0.075-0.065-0.058-0.137 0.035-0.152 0.099-0.25 0.214-0.202 0.043 0.018 0.073 0.061 0.064 0.154z"></path>
<path d="M21.202 15.81c-0.042-0.007-0.088-0.012-0.087-0.099 0.001-0.119 0.031-0.218 0.114-0.244 0.035-0.011 0.054 0.044 0.063 0.089 0.028 0.132-0.006 0.215-0.090 0.254z"></path>
<path d="M13.674 11.688c0.031-0.156 0.092-0.273 0.209-0.398-0.005 0.193 0.106 0.351 0.013 0.492-0.058 0.087-0.151-0.019-0.222-0.094z"></path>
<path d="M12.262 15.854c-0.229 0.038-0.375 0.281-0.544 0.536-0.037-0.173-0.033-0.291 0.073-0.363 0.15-0.101 0.299-0.21 0.471-0.175 0-0-0.001 0.002-0.001 0.002z"></path>
<path d="M11.713 15.811c-0.054 0.186-0.099 0.393-0.299 0.292 0.074-0.206 0.175-0.28 0.306-0.28 0 0-0.007-0.012-0.007-0.012z"></path>
<path d="M7.556 17.79c-0.012 0.039-0.014 0.056-0.020 0.067-0.038 0.073-0.070 0.161-0.141 0.157-0.011-0.001-0.031-0.047-0.029-0.067 0.012-0.11 0.073-0.136 0.13-0.165 0.008-0.005 0.019 0.002 0.060 0.008z"></path>
<path d="M12.010 16.639c-0.115-0.060-0.093 0.234-0.211 0.188 0.002-0.254 0.127-0.169 0.211-0.189 0-0-0.001 0.001-0.001 0.001z"></path>
<path d="M11.989 17.33c0.003-0.015 0.010-0.033 0.008-0.045-0.016-0.079-0.092-0.148-0.016-0.239 0.012-0.015 0.047-0.017 0.054-0.004 0.048 0.098-0.001 0.17-0.034 0.246-0.006 0.013-0.008 0.029-0.012 0.044v-0.001z"></path>
<path d="M11.44 13.876c0.236 0.246 1.030 0.379 1.325 0.251"></path>
<path d="M14.663 13.411c0.016 0.069-0.007 0.121-0.072 0.143"></path>
<path d="M11.584 20.893c0.264 0 0.527 0.015 0.781 0.036 0.476 0.039 0.991-0.134 1.439-0.072"></path>
<path d="M14.663 20.392c-0.451 0.115-0.946 0.26-1.432 0.251"></path>
</symbol>
<symbol id="html" viewBox="0 0 32 32">
<path d="M6.4 25.6v-3.2h-3.2v3.2h-1.6v-8h1.6v3.2h3.2v-3.2h1.6v8h-1.6zM11.2 25.6v-6.4h-2.24v-1.6h5.92v1.6h-2.080v6.4h-1.6zM16 25.6v-8h1.6l2.24 5.44h0.16l2.4-5.44h1.6v8h-1.6v-4.96h-0.16l-1.76 4h-0.96l-1.76-4h-0.16v4.96h-1.6zM30.4 25.6h-4.8v-8h1.6v6.4h3.2v1.6zM15.040 6.72l-3.68 3.68 3.68 3.68-0.96 1.92-5.6-5.6 5.6-5.6 0.96 1.92zM16.96 14.080l3.68-3.68-3.68-3.68 0.96-1.92 5.6 5.6-5.6 5.6-0.96-1.92z"></path>
</symbol>
<symbol id="instagram" viewBox="0 0 32 32">
<path d="M16 18.813c1.55 0 2.819-1.262 2.819-2.819 0-0.613-0.2-1.181-0.531-1.644-0.512-0.706-1.344-1.175-2.281-1.175s-1.769 0.463-2.281 1.175c-0.331 0.463-0.531 1.031-0.531 1.644-0.006 1.556 1.256 2.819 2.806 2.819z"></path>
<path d="M22.15 12.556v-2.713h-0.35l-2.363 0.006 0.012 2.713z"></path>
<path d="M20.375 16c0 2.413-1.962 4.375-4.375 4.375s-4.375-1.962-4.375-4.375c0-0.581 0.119-1.137 0.325-1.644h-2.387v6.55c0 0.844 0.688 1.531 1.531 1.531h9.813c0.844 0 1.531-0.688 1.531-1.531v-6.55h-2.387c0.212 0.506 0.325 1.063 0.325 1.644z"></path>
<path d="M16 0c-8.838 0-16 7.162-16 16s7.162 16 16 16 16-7.163 16-16-7.163-16-16-16zM24 14.356v6.55c0 1.706-1.387 3.094-3.094 3.094h-9.813c-1.706 0-3.094-1.387-3.094-3.094v-9.819c0-1.706 1.387-3.094 3.094-3.094h9.813c1.706 0 3.094 1.387 3.094 3.094v3.269z"></path>
</symbol>
</defs>
</svg>
